<?xml version="1.0" encoding="UTF-8" standalone="no"?>
<!DOCTYPE svg PUBLIC "-//W3C//DTD SVG 1.1//EN" "http://www.w3.org/Graphics/SVG/1.1/DTD/svg11.dtd">
<svg version="1.1" xmlns="http://www.w3.org/2000/svg" xmlns:xlink="http://www.w3.org/1999/xlink" preserveAspectRatio="xMidYMid meet" viewBox="40 147.5 320 350" width="320" height="335"><defs><path d="M200.42 460.36L65.67 384.02L65.67 231.34L200.42 155L335.17 231.34L335.17 384.02L200.42 460.36Z" id="cCmEEQss"></path><path d="M200 490L220 480L220 395L280 360L280 260L200 210L120 260L120 360L180 395L180 480L200 490Z" id="e6jOEIOc1h"></path><path d="M40 400L40 220L120 260L120 360L180 395L180 480L40 400Z" id="cuwgik9RR"></path><path d="M120 360L40 400" id="h1JkQD3Ifo"></path><path d="M360 400L360 220L280 260L280 360L220 395L220 480L360 400Z" id="aiaqva5Qa"></path><path d="M280 360L360 400" id="aba3JmJXh"></path><path d="" id="d3pQhr4WC"></path><path d="M255 355L200 240L145 355" id="btUcoDB2"></path><clipPath id="cliphya5YgnoP"><use xlink:href="#btUcoDB2" opacity="1"></use></clipPath></defs><g><g><use xlink:href="#cCmEEQss" opacity="1" fill="#85443b" fill-opacity="1"></use></g><g><g><use xlink:href="#e6jOEIOc1h" opacity="1" fill-opacity="0" stroke="#ff483a" stroke-width="15" stroke-opacity="1"></use></g></g><g><g><g><use xlink:href="#cuwgik9RR" opacity="1" fill-opacity="0" stroke="#ff483a" stroke-width="15" stroke-opacity="1"></use></g></g><g><g><use xlink:href="#h1JkQD3Ifo" opacity="1" fill-opacity="0" stroke="#ff483a" stroke-width="15" stroke-opacity="1"></use></g></g><g><g><use xlink:href="#aiaqva5Qa" opacity="1" fill-opacity="0" stroke="#ff483a" stroke-width="15" stroke-opacity="1"></use></g></g><g><g><use xlink:href="#aba3JmJXh" opacity="1" fill-opacity="0" stroke="#ff483a" stroke-width="15" stroke-opacity="1"></use></g></g></g><g><g><use xlink:href="#d3pQhr4WC" opacity="1" fill-opacity="0" stroke="#0074d9" stroke-width="15" stroke-opacity="1"></use></g></g><g><g clip-path="url(#cliphya5YgnoP)"><use xlink:href="#btUcoDB2" opacity="1" fill-opacity="0" stroke="#f5f9f9" stroke-width="30" stroke-opacity="1"></use></g></g></g></svg>